<?xml version="1.0" standalone="no"?>
<!DOCTYPE svg PUBLIC "-//W3C//DTD SVG 20010904//EN"
 "http://www.w3.org/TR/2001/REC-SVG-20010904/DTD/svg10.dtd">
<svg version="1.0" xmlns="http://www.w3.org/2000/svg"
 width="400.000000pt" height="400.000000pt" viewBox="0 0 400.000000 400.000000"
 preserveAspectRatio="xMidYMid meet">
<metadata>
Created by potrace 1.11, written by Peter Selinger 2001-2013
</metadata>
<g transform="translate(0.000000,400.000000) scale(0.100000,-0.100000)"
fill="#000000" stroke="none">
<path d="M0 2000 l0 -2000 2000 0 2000 0 0 2000 0 2000 -2000 0 -2000 0 0
-2000z m2900 1030 l0 -210 -513 0 c-555 0 -581 -2 -672 -55 -61 -36 -142 -126
-173 -192 -27 -58 -27 -59 -30 -320 l-3 -263 -211 0 -210 0 4 273 c5 239 8
282 27 352 88 325 358 567 684 615 29 4 287 8 575 9 l522 1 0 -210z m-3 -1317
c-5 -313 -11 -349 -78 -492 -102 -218 -293 -380 -531 -453 -71 -21 -88 -22
-635 -26 l-563 -3 0 210 0 210 543 3 542 3 66 32 c84 41 161 118 202 202 l32
66 3 263 3 262 211 0 210 0 -5 -277z"/>
</g>
</svg>
