<?xml version="1.0" encoding="UTF-8"?>
<svg width="50px" height="50px" viewBox="0 0 50 50" version="1.1" xmlns="http://www.w3.org/2000/svg" xmlns:xlink="http://www.w3.org/1999/xlink">
    <title>brandw50</title>
    <g id="brandw50" stroke="none" stroke-width="1" fill="none" fill-rule="evenodd">
        <rect fill="#FFFFFF" x="0" y="0" width="50" height="50"></rect>
        <path d="M17.9378486,25 L17.9378486,18.9827089 C17.9378486,18.1527378 18.092749,17.3832853 18.4025498,16.6743516 C18.7123506,15.9654179 19.1426295,15.3342939 19.6933865,14.7809798 C20.2441434,14.2276657 20.8809562,13.795389 21.6038247,13.4841499 C22.3266932,13.1729107 23.1011952,13.0172911 23.9273307,13.0172911 L23.9273307,13.0172911 L37.92,13.0172911 L37.92,7 L23.9273307,7 C22.2750598,7 20.7260558,7.31123919 19.2803187,7.93371758 C17.8345817,8.55619597 16.5695618,9.41210375 15.485259,10.5014409 C14.4009562,11.5907781 13.549004,12.8616715 12.9294024,14.314121 C12.3098008,15.7665706 12,17.3227666 12,18.9827089 L12,18.9827089 L12,25 L17.9378486,25 Z M25.9926693,43 C27.6449402,43 29.1939442,42.6887608 30.6396813,42.0662824 C32.0854183,41.443804 33.3504382,40.5878963 34.434741,39.4985591 C35.5190438,38.4092219 36.370996,37.1383285 36.9905976,35.685879 C37.6101992,34.2334294 37.92,32.6772334 37.92,31.0172911 L37.92,31.0172911 L37.92,25 L31.9305179,25 L31.9305179,31.0172911 C31.9305179,31.8472622 31.7756175,32.6253602 31.4658167,33.351585 C31.1560159,34.0778098 30.7257371,34.7089337 30.1749801,35.2449568 C29.6242231,35.7809798 28.9960159,36.204611 28.2903586,36.5158501 C27.5847012,36.8270893 26.8188048,36.9827089 25.9926693,36.9827089 L25.9926693,36.9827089 L12,36.9827089 L12,43 L25.9926693,43 Z" id="S" fill="#0076FF" fill-rule="nonzero"></path>
    </g>
</svg>